<?xml version="1.0" encoding="UTF-8"?>
<svg id="Vrstva_2" data-name="Vrstva 2" xmlns="http://www.w3.org/2000/svg" viewBox="0 0 803.55 235.07">
  <defs>
    <style>
      .cls-1 {
        fill: #2c6eb6;
      }

      .cls-2 {
        fill: #fff;
      }

      .cls-3 {
        fill: #132035;
      }
    </style>
  </defs>
  <g id="Vrstva_1-2" data-name="Vrstva 1">
    <g>
      <g>
        <path class="cls-1" d="M11.3,211.74H0V23.33h16.15l56.52,159.07V23.33h11.3v188.4h-13.73L11.3,43.79v167.95Z"/>
        <path class="cls-1" d="M117.62,23.33v188.4h-12.38V23.33h12.38Z"/>
        <path class="cls-1" d="M219.62,69.36v16.78h-11.84v-17.58c0-20.19-7.81-35.53-28.53-35.53s-28.53,15.34-28.53,35.53v97.97c0,20.19,7.8,35.26,28.53,35.26s28.53-15.07,28.53-35.26v-17.58h11.84v16.78c0,27.18-11.84,47.64-40.64,47.64s-40.64-20.46-40.64-47.64v-96.36c0-27.18,11.84-47.64,40.64-47.64s40.64,20.46,40.64,47.64Z"/>
        <path class="cls-1" d="M303.59,111.54v11.3h-51.41v77.59h61.91v11.3h-74.29V23.33h74.29v11.3h-61.91v76.9h51.41Z"/>
      </g>
      <g>
        <path class="cls-3" d="M528.48,184.7c3.23.27,7,.27,10.23.27,9.42,0,16.96-3.5,16.96-18.03V23.21h29.61v141.57c0,37.68-20.19,47.37-42.53,47.37-5.38,0-9.42,0-14.26-.54v-26.92Z"/>
        <path class="cls-3" d="M603.03,68.43c0-30.15,15.88-47.37,44.95-47.37s44.95,17.23,44.95,47.37v97.97c0,30.15-15.88,47.37-44.95,47.37s-44.95-17.23-44.95-47.37v-97.97ZM632.64,168.28c0,13.46,5.92,18.57,15.34,18.57s15.34-5.11,15.34-18.57v-101.74c0-13.46-5.92-18.57-15.34-18.57s-15.34,5.11-15.34,18.57v101.74Z"/>
        <path class="cls-3" d="M800.59,66.54v6.73c0,19.38-5.92,31.76-19.11,37.95,15.88,6.19,22.07,20.46,22.07,40.37v15.34c0,29.07-15.34,44.68-44.95,44.68h-46.56V23.21h44.68c30.68,0,43.87,14.26,43.87,43.33ZM741.64,50.13v49.79h11.57c11.04,0,17.76-4.84,17.76-19.92v-10.5c0-13.46-4.58-19.38-15.07-19.38h-14.27ZM741.64,126.83v57.87h16.96c9.96,0,15.34-4.58,15.34-18.57v-16.42c0-17.5-5.65-22.88-19.11-22.88h-13.19Z"/>
      </g>
      <g>
        <g>
          <path class="cls-3" d="M429.63,20c53.78,0,97.54,43.75,97.54,97.54s-43.75,97.54-97.54,97.54-97.54-43.75-97.54-97.54,43.75-97.54,97.54-97.54M429.63,9c-59.94,0-108.54,48.59-108.54,108.54s48.59,108.54,108.54,108.54,108.54-48.59,108.54-108.54S489.57,9,429.63,9h0Z"/>
          <g>
            <path class="cls-1" d="M496.06,173.42c-15.94,18.93-39.8,30.98-66.43,30.98s-50.5-12.05-66.44-30.98c1.12-5.95,4.45-10.54,9.97-13.23,10.42-5.09,20.99-9.87,31.49-14.78.51-.25,1.06-.36,1.61-.35,1.75-.28,3.48.61,4.25,2.66,5.15,13.68,10.42,27.32,15.67,40.96.18.47.37.94.56,1.4.55,1.38,1.31,2.38,2.89,2.44,1.57-.06,2.34-1.06,2.88-2.44.19-.46.38-.93.56-1.39,5.25-13.65,10.52-27.29,15.67-40.97.77-2.05,2.5-2.94,4.25-2.66.55-.01,1.1.1,1.61.35,10.5,4.91,21.07,9.69,31.49,14.78,5.52,2.69,8.86,7.28,9.97,13.23Z"/>
            <path class="cls-1" d="M398.83,101.47c.09,1.85.21,3.71.73,5.47,0,.01,0,.02,0,.03.45,1.81,1.19,3.49,2.74,4.72.83.66,1.19,1.35,1.44,2.19,0,0,0,0,0,0,.93,4.25,2.44,8.12,4.57,11.58.14.23.29.47.44.7.14.22.29.44.43.66.01.03.03.05.05.07.12.18.25.37.39.55.04.06.08.12.12.17.11.16.23.32.35.48.07.1.15.2.23.3.07.09.14.18.21.27.11.15.23.3.35.44.06.08.12.15.18.22.16.19.32.38.48.57.16.19.33.38.5.56.04.05.08.09.12.13.18.2.36.39.55.59.2.21.4.42.61.62.2.2.41.41.63.61.21.2.43.4.65.6.65.59,1.33,1.16,2.04,1.71.17.13.34.27.52.4.11.09.23.17.35.26.19.14.38.27.56.41,0,0,.02.01.02.02.12.09.25.17.38.26.11.08.22.15.33.22.02.01.04.02.05.03.22.15.44.29.67.43.44.28.89.54,1.34.78.32.18.65.34.97.5.18.09.37.17.55.26,1.28.57,2.57.99,3.86,1.26,0,0,0,0,.01,0,.17.04.34.07.51.1.34.06.67.11,1.01.15.17.02.34.04.51.05.11.01.23.02.34.03.22.01.45.02.67.03.23,0,.46,0,.69,0,.22,0,.45-.02.67-.03.11,0,.23-.02.34-.03.17-.02.34-.03.51-.05.34-.04.67-.09,1.01-.15.17-.03.34-.06.51-.1,0,0,0,0,.01,0,1.29-.27,2.57-.68,3.86-1.26.18-.08.36-.17.55-.26.32-.16.65-.32.97-.5.45-.24.89-.5,1.34-.78.24-.15.48-.31.72-.47.24-.16.47-.32.7-.48,0,0,.02-.01.02-.02.15-.11.31-.22.46-.33,1.06-.77,2.07-1.58,3.01-2.44.22-.2.43-.39.65-.59.21-.2.42-.4.63-.61.21-.2.41-.41.61-.62.2-.21.4-.42.59-.63.19-.21.39-.43.57-.65.16-.19.32-.38.48-.57.06-.07.12-.15.18-.22.12-.15.24-.29.35-.44.07-.09.14-.18.21-.27.08-.1.15-.2.23-.3.12-.16.23-.32.35-.48.04-.06.08-.11.12-.17.13-.18.26-.36.39-.55.02-.03.03-.05.05-.07.15-.22.3-.44.43-.66.15-.23.3-.46.44-.7.15-.23.29-.47.42-.71.12-.2.23-.41.35-.62,1.72-3.11,2.99-6.54,3.79-10.26,0,0,0,0,0,0,.25-.84.61-1.53,1.44-2.19,1.55-1.23,2.29-2.91,2.74-4.72,0-.01,0-.02,0-.03.52-1.76.64-3.62.73-5.47,0-.04,0-.07.01-.11.04-.34.05-.68.02-.99,0-.06,0-.13-.01-.19-.08-.93-.41-1.72-1.07-2.35-.22-.24-.48-.47-.77-.68-.39-.29-.62-1.08-.59-1.62.03-.7.06-1.4.1-2.09.18-2.76.34-5.52.5-8.29.02-.37.04-.74.05-1.1,0-.08.01-.15.02-.23.51-7.61-2.55-13.63-8.5-18.12-.98-.74-1.97-1.42-2.98-2.05-1.43-1.52-3.29-2.57-5.31-3.25-4.19-1.4-8.27-2.09-12.25-2.05-6.14.05-12,1.82-17.56,5.3-.54.57-1.02,1.22-1.43,1.93-.9,1.58-1.34,3.43-2.08,5.43-.3.03-.9.06-1.47.17-2.74.54-4.53,2.2-5.52,4.77-1,2.63-1.08,5.35-.96,8.09.01.37.03.74.05,1.1.15,2.76.31,5.52.5,8.29.03.7.07,1.4.1,2.09.02.54-.2,1.33-.59,1.62-.29.21-.55.44-.77.68-.67.63-1,1.42-1.07,2.36,0,.06,0,.11-.01.17-.03.32-.02.65.02,1,0,.03,0,.07.01.1Z"/>
            <path class="cls-1" d="M434.87,159.54c.79-.12,1.37-.23,1.78-.4.93-.35,1.05-1.02,1.05-2.77,0-1.23,0-2.46,0-3.69,0-1.15,0-2.31,0-3.46-.01-1.65-.68-2.32-2.34-2.33-1.89,0-3.78,0-5.67,0h-.13c-1.89,0-3.78,0-5.67,0-1.65,0-2.32.67-2.34,2.33,0,1.15-.01,2.31,0,3.46,0,1.23,0,2.46,0,3.69,0,1.75.13,2.42,1.05,2.77.41.16.98.27,1.78.4.04.04.1.1.19.19-.02.13-.04.25-.06.38-.47,2.44-.99,4.93-1.39,7.44-.13.79-.07,1.71.21,2.45,1.88,4.87,3.85,9.71,5.79,14.56.02.05.04.1.06.15.13.33.25.66.38,1,.02-.04.04-.07.05-.11.02.04.04.07.05.11.13-.33.25-.67.38-1,.02-.05.04-.1.06-.15,1.94-4.85,3.91-9.69,5.79-14.56.29-.74.34-1.66.21-2.45-.4-2.51-.92-5-1.39-7.44-.02-.13-.04-.25-.06-.38.09-.08.14-.14.19-.19Z"/>
          </g>
          <g>
            <g>
              <path class="cls-3" d="M429.63,45.13c-3.86,0-7-3.14-7-7V9c0-3.86,3.14-7,7-7s7,3.14,7,7v29.13c0,3.86-3.14,7-7,7Z"/>
              <path class="cls-2" d="M429.63,4c2.76,0,5,2.24,5,5v29.13c0,2.76-2.24,5-5,5s-5-2.24-5-5V9c0-2.76,2.24-5,5-5M429.63,0c-4.96,0-9,4.04-9,9v29.13c0,4.96,4.04,9,9,9s9-4.04,9-9V9c0-4.96-4.04-9-9-9h0Z"/>
            </g>
            <g>
              <path class="cls-3" d="M429.63,233.07c-3.86,0-7-3.14-7-7v-29.13c0-3.86,3.14-7,7-7s7,3.14,7,7v29.13c0,3.86-3.14,7-7,7Z"/>
              <path class="cls-2" d="M429.63,191.94c2.76,0,5,2.24,5,5v29.13c0,2.76-2.24,5-5,5s-5-2.24-5-5v-29.13c0-2.76,2.24-5,5-5M429.63,187.94c-4.96,0-9,4.04-9,9v29.13c0,4.96,4.04,9,9,9s9-4.04,9-9v-29.13c0-4.96-4.04-9-9-9h0Z"/>
            </g>
          </g>
        </g>
        <g>
          <g>
            <path class="cls-3" d="M509.03,124.54c-3.86,0-7-3.14-7-7s3.14-7,7-7h29.13c3.86,0,7,3.14,7,7s-3.14,7-7,7h-29.13Z"/>
            <path class="cls-2" d="M538.16,112.54c2.76,0,5,2.24,5,5s-2.24,5-5,5h-29.13c-2.76,0-5-2.24-5-5s2.24-5,5-5h29.13M538.16,108.54h-29.13c-4.96,0-9,4.04-9,9s4.04,9,9,9h29.13c4.96,0,9-4.04,9-9s-4.04-9-9-9h0Z"/>
          </g>
          <g>
            <path class="cls-3" d="M321.09,124.54c-3.86,0-7-3.14-7-7s3.14-7,7-7h29.13c3.86,0,7,3.14,7,7s-3.14,7-7,7h-29.13Z"/>
            <path class="cls-2" d="M350.22,112.54c2.76,0,5,2.24,5,5s-2.24,5-5,5h-29.13c-2.76,0-5-2.24-5-5s2.24-5,5-5h29.13M350.22,108.54h-29.13c-4.96,0-9,4.04-9,9s4.04,9,9,9h29.13c4.96,0,9-4.04,9-9s-4.04-9-9-9h0Z"/>
          </g>
        </g>
      </g>
    </g>
  </g>
</svg>