<?xml version="1.0" encoding="UTF-8"?>
<svg id="Vrstva_2" data-name="Vrstva 2" xmlns="http://www.w3.org/2000/svg" viewBox="0 0 725.49 210.61">
  <defs>
    <style>
      .cls-1 {
        fill: #be1622;
      }

      .cls-2 {
        fill: #14467d;
      }
    </style>
  </defs>
  <g id="Vrstva_1-2" data-name="Vrstva 1">
    <g>
      <path class="cls-2" d="M714.09,105.3c-3.56-2.25-7.67-3.64-12.35-4.18,2.79-.45,5.37-1.48,7.76-3.1,2.38-1.62,4.36-3.87,5.94-6.75,1.57-2.88,2.36-6.3,2.36-10.26,0-5.22-1.37-9.51-4.12-12.89-2.75-3.37-6.57-5.89-11.47-7.56-4.9-1.66-10.59-2.5-17.07-2.5h-24.56v78c0,8.68,6.73,15.78,15.25,16.4,0,.02,0,.04,0,.06h13.76c7.29,0,13.63-1.01,19.03-3.04,5.4-2.02,9.56-4.99,12.48-8.91,2.92-3.91,4.39-8.61,4.39-14.1,0-4.68-1.01-8.82-3.04-12.42-2.02-3.6-4.81-6.52-8.37-8.77ZM703.97,137.28c-1.75,3.24-4.21,5.65-7.35,7.22-3.15,1.58-6.84,2.36-11.07,2.36h-8.5V63.33h4.86c3.78,0,7.02.67,9.72,2.02,2.7,1.35,4.77,3.44,6.21,6.27,1.44,2.83,2.16,6.41,2.16,10.73,0,3.78-.56,6.91-1.69,9.38-1.13,2.47-2.59,4.41-4.39,5.8-1.8,1.4-3.78,2.38-5.94,2.97-2.16.59-4.27.88-6.34.88v1.21c3.06,0,6.07.36,9.04,1.08,2.97.72,5.64,1.94,8.03,3.64,2.38,1.71,4.29,4.03,5.74,6.95,1.44,2.93,2.16,6.55,2.16,10.86,0,4.86-.88,8.91-2.63,12.15Z"/>
      <path class="cls-2" d="M226.67,115.02c-1.26,8.91-3.49,16.01-6.68,21.32-3.19,5.31-7.29,9.11-12.28,11.4-4.99,2.29-10.86,3.44-17.61,3.44-6.93-.18-12.98-2.09-18.15-5.73-5.17-3.64-9.18-8.77-12.01-15.38-2.83-6.61-4.25-14.37-4.25-23.28s1.46-16.62,4.39-23.14c2.92-6.52,7.06-11.56,12.42-15.11,5.35-3.55,11.72-5.33,19.09-5.33s14.33,1.96,20.04,5.87c5.71,3.91,9.69,10.15,11.94,18.69h1.21l-1.08-21.73c-3.87-2.16-8.59-4.02-14.17-5.6-5.58-1.57-11.88-2.36-18.89-2.36-10.89,0-20.29,2-28.2,6-7.92,4-14.03,9.67-18.35,17-4.32,7.33-6.48,15.99-6.48,25.98s2.18,18.92,6.55,26.25c4.36,7.33,10.5,12.98,18.42,16.94,7.92,3.96,17.09,5.98,27.53,6.07,6.57,0,12.3-.83,17.21-2.5,4.9-1.66,9.06-3.91,12.48-6.75,3.42-2.83,6.16-6,8.23-9.51l-.27-22.54h-1.08Z"/>
      <path class="cls-2" d="M253.67,147.27v-38.73h30.63v-5.13h-30.63v-40.08h36.98v-5.26h-53.44v78c0,8.96,7.15,16.23,16.06,16.44v.02h38.46l-2.29-5.26h-35.76Z"/>
      <path class="cls-2" d="M111.96,136.07c0,9.09,7.37,16.46,16.46,16.46V58.07h-16.46v78Z"/>
      <path class="cls-2" d="M519.8,144.2c0,4.75-.69,9.39-2.06,13.93-1.37,4.54-3.43,8.58-6.18,12.11-2.75,3.54-6.18,6.15-10.29,7.84v1.42c4.96.32,9.71-.32,14.25-1.9,4.54-1.58,8.58-3.93,12.11-7.05,3.54-3.12,6.33-6.86,8.39-11.24,2.06-4.38,3.09-9.26,3.09-14.65V36.99h-19.32v107.21Z"/>
      <path class="cls-2" d="M101.03,132.16V56.63c0-9.53-7.73-17.26-17.26-17.26v78.88L1.58,36.99H0c1.16,7.5,1.74,14.09,1.74,19.79v75.85c0,9.71,7.87,17.58,17.58,17.58l-.13-78.88,82.16,81.1h1.42c-.53-3.59-.95-6.91-1.27-9.98-.32-3.06-.47-6.49-.47-10.29Z"/>
      <path class="cls-2" d="M627.04,64.08c-7.79-4.01-16.86-6.01-27.19-6.01s-19.53,2-27.26,6.01c-7.75,4.01-13.72,9.69-17.95,17.07-4.24,7.38-6.34,16.06-6.34,26.05s2.11,18.66,6.34,26.05c4.22,7.38,10.2,13.06,17.95,17.07,7.73,4.01,16.81,6,27.26,6s19.41-2,27.19-6c7.77-4.01,13.78-9.69,18.02-17.07,4.22-7.38,6.34-16.06,6.34-26.05s-2.12-18.66-6.34-26.05c-4.24-7.38-10.24-13.06-18.02-17.07ZM629.07,130.54c-2.75,6.57-6.61,11.65-11.61,15.25-4.99,3.6-10.86,5.4-17.61,5.4s-12.62-1.79-17.61-5.4c-4.99-3.6-8.87-8.68-11.6-15.25-2.75-6.57-4.12-14.34-4.12-23.35s1.36-16.77,4.12-23.35c2.74-6.57,6.61-11.65,11.6-15.25,4.99-3.6,10.86-5.4,17.61-5.4s12.62,1.79,17.61,5.4c4.99,3.6,8.85,8.68,11.61,15.25,2.74,6.57,4.12,14.34,4.12,23.35s-1.38,16.77-4.12,23.35Z"/>
      <path class="cls-1" d="M501.25,113.94c-4.14,48.71-42.96,87.53-91.66,91.66v-11.04c42.56-4.09,76.53-38.06,80.62-80.62h11.04Z"/>
      <path class="cls-1" d="M392.32,194.56v11.04c-48.71-4.14-87.52-42.95-91.66-91.66h11.04c4.09,42.56,38.05,76.53,80.62,80.62Z"/>
      <path class="cls-1" d="M501.25,96.66h-11.04c-4.09-42.56-38.06-76.53-80.62-80.62V5c48.7,4.13,87.52,42.95,91.66,91.66Z"/>
      <path class="cls-1" d="M392.32,5v11.04c-42.57,4.09-76.53,38.06-80.62,80.62h-11.04c4.14-48.71,42.95-87.52,91.66-91.66Z"/>
      <path class="cls-2" d="M397.64,170.98c-3.12,1.3-5.32,4.38-5.32,7.97v6.46c-21.19-2.27-39.95-12.8-52.98-28.28,1.04-5.52,4.13-9.77,9.24-12.27,9.67-4.72,19.47-9.15,29.21-13.71.47-.23.99-.33,1.5-.32,1.62-.26,3.22.57,3.94,2.47,4.73,12.58,9.58,25.13,14.41,37.68Z"/>
      <path class="cls-2" d="M462.58,157.13c-13.04,15.49-31.8,26.01-52.99,28.28v-6.46c0-3.59-2.2-6.67-5.31-7.98,4.82-12.55,9.67-25.1,14.41-37.67.71-1.9,2.31-2.73,3.94-2.47.51-.01,1.02.09,1.49.32,9.74,4.56,19.54,8.99,29.21,13.71,5.12,2.5,8.22,6.75,9.25,12.27Z"/>
      <path class="cls-2" d="M372.4,90.4c.09,1.72.2,3.44.68,5.08,0,0,0,.02,0,.03.41,1.68,1.1,3.24,2.54,4.38.77.61,1.11,1.26,1.34,2.03,0,0,0,0,0,0,.86,3.95,2.26,7.53,4.24,10.74.13.22.26.43.41.65.13.21.27.41.4.61.01.02.03.05.05.07.12.17.23.34.36.51.03.05.07.11.11.16.11.15.22.3.32.44.07.09.14.18.21.27.06.09.13.17.19.25.11.14.22.27.33.41.05.07.11.14.17.21.14.18.29.35.44.53.15.18.3.35.46.52.04.04.07.08.11.12.17.18.34.36.51.54.18.19.37.39.56.58.19.19.38.38.58.56.2.19.4.37.6.55.61.55,1.24,1.07,1.89,1.59.16.12.32.25.48.37.11.08.22.16.32.24.17.13.35.25.52.38,0,0,.01,0,.02.01.12.08.23.16.35.24.1.07.2.14.3.21.02.01.03.02.05.03.21.14.41.27.62.4.41.26.83.5,1.24.73.3.16.6.32.9.46.17.08.34.16.51.24,1.19.53,2.38.92,3.58,1.17,0,0,0,0,0,0,.16.03.31.06.47.09.31.05.62.1.94.13.16.02.31.03.47.05.11,0,.21.02.32.02.21.01.41.02.62.03.21,0,.42,0,.64,0,.21,0,.41-.01.62-.03.11,0,.21-.01.32-.02.16-.01.31-.03.47-.05.31-.04.62-.08.94-.13.16-.03.31-.06.47-.09,0,0,0,0,0,0,1.2-.25,2.39-.63,3.58-1.17.17-.08.34-.16.51-.24.3-.14.6-.3.9-.46.41-.22.83-.47,1.24-.73.22-.14.45-.28.67-.43.22-.15.44-.3.65-.45,0,0,.01,0,.02-.01.14-.1.28-.2.43-.31.98-.71,1.92-1.47,2.8-2.26.2-.18.4-.36.6-.55.2-.19.39-.37.58-.57.19-.19.38-.38.56-.58.18-.19.37-.39.55-.59.18-.2.36-.4.53-.6.15-.17.3-.35.44-.53.06-.07.11-.14.17-.21.11-.13.22-.27.33-.41.07-.08.13-.17.19-.25.07-.09.14-.18.21-.27.11-.15.22-.29.32-.44.04-.05.08-.11.11-.16.12-.17.24-.34.36-.51.02-.02.03-.04.05-.07.14-.2.27-.4.4-.61.14-.21.27-.43.41-.65.14-.22.27-.44.39-.66.11-.19.22-.38.32-.57,1.6-2.89,2.77-6.06,3.52-9.51,0,0,0,0,0,0,.23-.78.57-1.42,1.34-2.03,1.44-1.14,2.13-2.7,2.54-4.38,0,0,0-.02,0-.03.48-1.63.59-3.35.68-5.07,0-.03,0-.07,0-.1.04-.32.04-.63.02-.92,0-.06,0-.12-.01-.18-.07-.86-.38-1.6-1-2.18-.2-.22-.44-.43-.71-.63-.36-.27-.57-1-.55-1.51.03-.65.06-1.29.09-1.94.17-2.56.32-5.12.46-7.69.02-.34.04-.68.05-1.02,0-.07,0-.14.01-.21.47-7.06-2.37-12.65-7.89-16.81-.91-.69-1.83-1.32-2.76-1.9-1.33-1.41-3.05-2.39-4.93-3.02-3.89-1.3-7.68-1.94-11.36-1.9-5.69.05-11.13,1.69-16.29,4.92-.5.53-.95,1.13-1.33,1.79-.84,1.47-1.24,3.19-1.93,5.04-.28.03-.83.05-1.37.16-2.54.5-4.2,2.04-5.12,4.43-.93,2.44-1,4.96-.89,7.5.01.34.03.68.05,1.02.14,2.56.29,5.12.46,7.69.03.65.06,1.29.09,1.94.02.5-.19,1.24-.55,1.51-.27.2-.51.41-.71.63-.62.58-.93,1.32-1,2.18,0,.05,0,.11-.01.16-.02.29-.02.6.02.93,0,.03,0,.06,0,.09Z"/>
      <path class="cls-2" d="M405.82,144.26c.74-.11,1.27-.22,1.65-.37.86-.33.98-.94.98-2.57,0-1.14,0-2.28,0-3.43,0-1.07,0-2.14,0-3.21-.01-1.53-.63-2.15-2.17-2.16-1.75,0-3.51,0-5.26,0h-.12c-1.75,0-3.51,0-5.26,0-1.53,0-2.15.62-2.17,2.16,0,1.07,0,2.14,0,3.21,0,1.14,0,2.28,0,3.43,0,1.62.12,2.24.98,2.57.38.15.91.25,1.65.37.04.04.09.1.17.17-.02.12-.04.24-.05.35-.44,2.26-.92,4.57-1.29,6.9-.12.73-.07,1.59.2,2.28,1.75,4.52,3.57,9.01,5.37,13.51.02.05.04.09.06.14.12.31.24.62.35.93.02-.04.03-.07.05-.1.02.03.03.07.05.1.12-.31.24-.62.35-.93.02-.05.04-.09.06-.14,1.8-4.5,3.63-8.99,5.37-13.51.27-.69.31-1.54.2-2.28-.37-2.33-.85-4.63-1.29-6.9-.02-.12-.04-.23-.05-.35.08-.08.13-.13.17-.17Z"/>
      <path class="cls-1" d="M405.59,4.63v27.02c0,2.56-2.07,4.64-4.63,4.64s-4.64-2.08-4.64-4.64V4.63c0-2.56,2.08-4.63,4.64-4.63s4.63,2.07,4.63,4.63Z"/>
      <path class="cls-1" d="M405.59,178.95v27.02c0,2.56-2.07,4.64-4.63,4.64s-4.64-2.08-4.64-4.64v-27.02c0-2.12,1.42-3.9,3.36-4.46.41-.12.84-.18,1.28-.18s.87.06,1.28.18c1.94.56,3.35,2.34,3.35,4.46Z"/>
      <path class="cls-1" d="M506.26,105.3c0,2.56-2.07,4.64-4.64,4.64h-27.01c-2.57,0-4.64-2.08-4.64-4.64s2.07-4.64,4.64-4.64h27.01c2.57,0,4.64,2.08,4.64,4.64Z"/>
      <path class="cls-1" d="M331.95,105.3c0,2.56-2.08,4.64-4.64,4.64h-27.02c-2.56,0-4.64-2.08-4.64-4.64s2.08-4.64,4.64-4.64h27.02c2.56,0,4.64,2.08,4.64,4.64Z"/>
    </g>
  </g>
</svg>