<?xml version="1.0" encoding="UTF-8"?>
<svg id="Vrstva_2" data-name="Vrstva 2" xmlns="http://www.w3.org/2000/svg" viewBox="0 0 626.55 212.25">
  <defs>
    <style>
      .cls-1 {
        fill: #fff;
      }
    </style>
  </defs>
  <g id="Vrstva_1-2" data-name="Vrstva 1">
    <g>
      <path class="cls-1" d="M22.49,44.68v115.17H0V.83h31.35l25.67,95.18V.83h22.26v159.02h-25.67L22.49,44.68Z"/>
      <path class="cls-1" d="M97.23.83h24.99v159.02h-24.99V.83Z"/>
      <path class="cls-1" d="M212.03,106.85v13.92c0,24.87-12.44,39.09-36.42,39.09s-36.42-14.21-36.42-39.09V39.92c0-24.87,12.44-39.09,36.42-39.09s36.42,14.21,36.42,39.09v13.92h-23.1v-15.47c0-11.1-4.89-15.32-12.66-15.32s-12.66,4.22-12.66,15.32v83.95c0,11.1,4.89,15.1,12.66,15.1s12.66-4,12.66-15.1v-15.47h23.1Z"/>
      <path class="cls-1" d="M253.07,67.85h34.3v22.72h-34.3v46.57h43.16v22.72h-68.15V.83h68.15v22.72h-43.16v44.3Z"/>
      <path class="cls-1" d="M309.19,150.31c3.18.23,6.36,0,9.31-.23,14.99-1.14,22.49-9.09,22.49-28.62V.83h10.45v119.94c0,27.94-12.49,38.16-31.8,39.07-3.41.23-6.82.23-10.45,0v-9.54Z"/>
      <path class="cls-1" d="M591.11.83c23.85,0,32.49,11.81,32.49,33.85v9.09c0,17.26-4.77,27.94-20.9,31.35,17.27,3.41,23.85,16.13,23.85,34.08v13.86c0,22.94-10.45,36.8-34.76,36.8h-34.08V.83h33.39ZM585.88,71.03c18.63,0,27.26-5,27.26-25.22v-10.22c0-16.58-5.22-25.22-22.26-25.22h-22.72v60.65h17.72ZM591.79,150.31c17.49,0,24.31-9.77,24.31-27.49v-14.31c0-20.67-9.31-27.94-28.17-27.94h-19.76v69.74h23.63Z"/>
      <path class="cls-1" d="M456.22,0c-43.91,0-79.5,35.6-79.5,79.51,0,33.41,20.6,62.01,49.8,73.76,0,0,.01,0,.01.01,4.78,1.94,9.8,3.41,14.99,4.38v54.59h29.41v-54.59c5.19-.97,10.2-2.44,14.98-4.37,29.21-11.76,49.82-40.36,49.82-73.78,0-43.91-35.59-79.51-79.51-79.51ZM493.23,141.84c-3.63,2.17-7.47,4.03-11.47,5.53-3.49,1.32-7.11,2.38-10.83,3.14-2.29.48-4.63.85-7,1.1v53.64h-15.41v-53.63c-2.37-.26-4.71-.62-7-1.1-3.72-.77-7.34-1.82-10.83-3.15-4.01-1.5-7.84-3.36-11.47-5.53-21.24-12.66-35.5-35.86-35.5-62.33,0-39.98,32.52-72.51,72.5-72.51s72.51,32.53,72.51,72.51c0,26.47-14.26,49.68-35.5,62.33Z"/>
      <path class="cls-1" d="M456.22,16.61c-34.73,0-62.89,28.16-62.89,62.9,0,19.5,8.88,36.93,22.81,48.47,2.43,2.02,5.02,3.85,7.74,5.48-.51-2.31-.78-4.71-.78-7.17,0-.59.02-1.17.04-1.75.92-17.45,15.41-31.37,33.08-31.37s32.17,13.92,33.09,31.37c.02.58.04,1.16.04,1.75,0,2.46-.27,4.86-.78,7.17,2.72-1.63,5.31-3.46,7.74-5.48,13.93-11.54,22.81-28.97,22.81-48.47,0-34.74-28.16-62.9-62.9-62.9ZM456.22,85.86c-9.01,0-16.34-7.34-16.34-16.35s7.33-16.34,16.34-16.34,16.35,7.33,16.35,16.34-7.33,16.35-16.35,16.35ZM495.69,119.06c-2.57-14.19-12.62-25.77-25.91-30.54,5.93-4.23,9.79-11.17,9.79-19.01,0-12.89-10.45-23.34-23.35-23.34s-23.34,10.45-23.34,23.34c0,7.84,3.86,14.78,9.79,19.01-13.29,4.77-23.33,16.35-25.92,30.53-10.14-10.13-16.42-24.11-16.42-39.54,0-30.82,25.07-55.9,55.89-55.9s55.9,25.08,55.9,55.9c0,15.43-6.28,29.42-16.43,39.55Z"/>
    </g>
  </g>
</svg>